<mxfile host="Electron" agent="Mozilla/5.0 (Windows NT 10.0; Win64; x64) AppleWebKit/537.36 (KHTML, like Gecko) draw.io/24.7.5 Chrome/126.0.6478.183 Electron/31.3.0 Safari/537.36" version="24.7.5" pages="3">
  <diagram id="zGulmCbrl5WKnLMLyR-G" name="架構">
    <mxGraphModel dx="907" dy="582" grid="1" gridSize="10" guides="1" tooltips="1" connect="1" arrows="1" fold="1" page="1" pageScale="1" pageWidth="1169" pageHeight="827" math="0" shadow="0">
      <root>
        <mxCell id="0" />
        <mxCell id="1" parent="0" />
        <mxCell id="hnr1kKXd9vWUxd9cDDd0-31" style="edgeStyle=orthogonalEdgeStyle;rounded=0;orthogonalLoop=1;jettySize=auto;html=1;" edge="1" parent="1" source="hnr1kKXd9vWUxd9cDDd0-17">
          <mxGeometry relative="1" as="geometry">
            <mxPoint x="325" y="379.9999999999999" as="targetPoint" />
          </mxGeometry>
        </mxCell>
        <mxCell id="hnr1kKXd9vWUxd9cDDd0-33" value="生成 Image" style="edgeLabel;html=1;align=center;verticalAlign=middle;resizable=0;points=[];" vertex="1" connectable="0" parent="hnr1kKXd9vWUxd9cDDd0-31">
          <mxGeometry x="-0.0087" y="-2" relative="1" as="geometry">
            <mxPoint x="-2" y="-1" as="offset" />
          </mxGeometry>
        </mxCell>
        <mxCell id="hnr1kKXd9vWUxd9cDDd0-17" value="" style="rounded=0;whiteSpace=wrap;html=1;" vertex="1" parent="1">
          <mxGeometry x="270" y="230.25" width="110" height="109.75" as="geometry" />
        </mxCell>
        <mxCell id="hnr1kKXd9vWUxd9cDDd0-27" value="&lt;div&gt;&lt;/div&gt;" style="rounded=0;whiteSpace=wrap;html=1;dashed=1;" vertex="1" parent="1">
          <mxGeometry x="285" y="234" width="80" height="105" as="geometry" />
        </mxCell>
        <mxCell id="hnr1kKXd9vWUxd9cDDd0-24" value="Jenkins" style="shape=image;verticalLabelPosition=bottom;labelBackgroundColor=default;verticalAlign=top;aspect=fixed;imageAspect=0;image=https://s4.itho.me/sites/default/files/images/733%20%E5%B0%81%E9%9D%A25%20(P28-4%E5%A4%A7%E5%B7%A5%E5%85%B7-Jenkins)-400.png;" vertex="1" parent="1">
          <mxGeometry x="295" y="234" width="60" height="84" as="geometry" />
        </mxCell>
        <mxCell id="KYfs4C4D3kgQdrwAm8qE-4" value="" style="rounded=0;whiteSpace=wrap;html=1;" parent="1" vertex="1">
          <mxGeometry x="610" y="220" width="250" height="120" as="geometry" />
        </mxCell>
        <mxCell id="KYfs4C4D3kgQdrwAm8qE-8" value="&lt;div&gt;&lt;/div&gt;" style="rounded=0;whiteSpace=wrap;html=1;dashed=1;" parent="1" vertex="1">
          <mxGeometry x="640" y="236.75" width="80" height="86.5" as="geometry" />
        </mxCell>
        <mxCell id="KYfs4C4D3kgQdrwAm8qE-2" value="Remote Server" style="image;points=[];aspect=fixed;html=1;align=center;shadow=0;dashed=0;image=img/lib/allied_telesis/computer_and_terminals/Server_Desktop.svg;" parent="1" vertex="1">
          <mxGeometry x="550" y="233.25" width="73.76" height="93.5" as="geometry" />
        </mxCell>
        <mxCell id="hnr1kKXd9vWUxd9cDDd0-28" style="edgeStyle=orthogonalEdgeStyle;rounded=0;orthogonalLoop=1;jettySize=auto;html=1;" edge="1" parent="1" source="KYfs4C4D3kgQdrwAm8qE-3">
          <mxGeometry relative="1" as="geometry">
            <mxPoint x="762.0344827586207" y="278.1465517241379" as="targetPoint" />
          </mxGeometry>
        </mxCell>
        <mxCell id="KYfs4C4D3kgQdrwAm8qE-3" value="" style="image;sketch=0;aspect=fixed;html=1;points=[];align=center;fontSize=12;image=img/lib/mscae/Docker.svg;" parent="1" vertex="1">
          <mxGeometry x="643.11" y="248.13" width="73.78" height="60.5" as="geometry" />
        </mxCell>
        <mxCell id="KYfs4C4D3kgQdrwAm8qE-6" value="Container" style="rounded=0;whiteSpace=wrap;html=1;dashed=1;" parent="1" vertex="1">
          <mxGeometry x="760" y="296.75" width="70" height="26.5" as="geometry" />
        </mxCell>
        <mxCell id="KYfs4C4D3kgQdrwAm8qE-9" value="App&lt;div&gt;應用程式&lt;/div&gt;" style="rounded=0;whiteSpace=wrap;html=1;dashed=1;" parent="1" vertex="1">
          <mxGeometry x="760" y="236.75" width="70" height="60" as="geometry" />
        </mxCell>
        <mxCell id="hnr1kKXd9vWUxd9cDDd0-1" value="CICD Server" style="image;points=[];aspect=fixed;html=1;align=center;shadow=0;dashed=0;image=img/lib/allied_telesis/computer_and_terminals/Server_Desktop.svg;" vertex="1" parent="1">
          <mxGeometry x="201.24" y="240" width="73.76" height="93.5" as="geometry" />
        </mxCell>
        <mxCell id="hnr1kKXd9vWUxd9cDDd0-30" value="Image" style="whiteSpace=wrap;html=1;shape=mxgraph.basic.document" vertex="1" parent="1">
          <mxGeometry x="305" y="382" width="40" height="63.5" as="geometry" />
        </mxCell>
        <mxCell id="hnr1kKXd9vWUxd9cDDd0-32" style="edgeStyle=orthogonalEdgeStyle;rounded=0;orthogonalLoop=1;jettySize=auto;html=1;entryX=0;entryY=0.535;entryDx=0;entryDy=0;entryPerimeter=0;" edge="1" parent="1" source="hnr1kKXd9vWUxd9cDDd0-30" target="KYfs4C4D3kgQdrwAm8qE-2">
          <mxGeometry relative="1" as="geometry" />
        </mxCell>
        <mxCell id="hnr1kKXd9vWUxd9cDDd0-34" value="Deploy 遠端主機" style="edgeLabel;html=1;align=center;verticalAlign=middle;resizable=0;points=[];" vertex="1" connectable="0" parent="hnr1kKXd9vWUxd9cDDd0-32">
          <mxGeometry x="0.0003" relative="1" as="geometry">
            <mxPoint as="offset" />
          </mxGeometry>
        </mxCell>
        <mxCell id="hnr1kKXd9vWUxd9cDDd0-35" value="&lt;font style=&quot;font-size: 24px;&quot;&gt;1.&lt;/font&gt;" style="ellipse;whiteSpace=wrap;html=1;" vertex="1" parent="1">
          <mxGeometry x="365" y="203.5" width="40" height="40" as="geometry" />
        </mxCell>
        <mxCell id="hnr1kKXd9vWUxd9cDDd0-36" value="&lt;font style=&quot;font-size: 24px;&quot;&gt;2.&lt;/font&gt;" style="ellipse;whiteSpace=wrap;html=1;" vertex="1" parent="1">
          <mxGeometry x="405" y="296.75" width="40" height="40" as="geometry" />
        </mxCell>
        <mxCell id="hnr1kKXd9vWUxd9cDDd0-37" value="&lt;font style=&quot;font-size: 24px;&quot;&gt;3.&lt;/font&gt;" style="ellipse;whiteSpace=wrap;html=1;" vertex="1" parent="1">
          <mxGeometry x="570" y="187.25" width="40" height="40" as="geometry" />
        </mxCell>
      </root>
    </mxGraphModel>
  </diagram>
  <diagram name="決定Runtime副本" id="1Amc_j37sxDssn-ybJH9">
    <mxGraphModel dx="1315" dy="844" grid="1" gridSize="10" guides="1" tooltips="1" connect="1" arrows="1" fold="1" page="1" pageScale="1" pageWidth="1169" pageHeight="827" math="0" shadow="0">
      <root>
        <mxCell id="lldb4Gp3CRzsJXC3ru5u-0" />
        <mxCell id="lldb4Gp3CRzsJXC3ru5u-1" parent="lldb4Gp3CRzsJXC3ru5u-0" />
        <mxCell id="nEVGBtsOZPTAMh6AxARu-0" style="edgeStyle=orthogonalEdgeStyle;rounded=0;orthogonalLoop=1;jettySize=auto;html=1;" edge="1" parent="lldb4Gp3CRzsJXC3ru5u-1" source="nEVGBtsOZPTAMh6AxARu-2">
          <mxGeometry relative="1" as="geometry">
            <mxPoint x="325" y="379.9999999999999" as="targetPoint" />
          </mxGeometry>
        </mxCell>
        <mxCell id="nEVGBtsOZPTAMh6AxARu-1" value="生成 Image" style="edgeLabel;html=1;align=center;verticalAlign=middle;resizable=0;points=[];" vertex="1" connectable="0" parent="nEVGBtsOZPTAMh6AxARu-0">
          <mxGeometry x="-0.0087" y="-2" relative="1" as="geometry">
            <mxPoint x="-2" y="-1" as="offset" />
          </mxGeometry>
        </mxCell>
        <mxCell id="nEVGBtsOZPTAMh6AxARu-2" value="" style="rounded=0;whiteSpace=wrap;html=1;" vertex="1" parent="lldb4Gp3CRzsJXC3ru5u-1">
          <mxGeometry x="270" y="230.25" width="110" height="109.75" as="geometry" />
        </mxCell>
        <mxCell id="nEVGBtsOZPTAMh6AxARu-3" value="&lt;div&gt;&lt;/div&gt;" style="rounded=0;whiteSpace=wrap;html=1;dashed=1;" vertex="1" parent="lldb4Gp3CRzsJXC3ru5u-1">
          <mxGeometry x="285" y="234" width="80" height="105" as="geometry" />
        </mxCell>
        <mxCell id="nEVGBtsOZPTAMh6AxARu-4" value="Jenkins" style="shape=image;verticalLabelPosition=bottom;labelBackgroundColor=default;verticalAlign=top;aspect=fixed;imageAspect=0;image=https://s4.itho.me/sites/default/files/images/733%20%E5%B0%81%E9%9D%A25%20(P28-4%E5%A4%A7%E5%B7%A5%E5%85%B7-Jenkins)-400.png;" vertex="1" parent="lldb4Gp3CRzsJXC3ru5u-1">
          <mxGeometry x="295" y="234" width="60" height="84" as="geometry" />
        </mxCell>
        <mxCell id="nEVGBtsOZPTAMh6AxARu-5" value="" style="rounded=0;whiteSpace=wrap;html=1;" vertex="1" parent="lldb4Gp3CRzsJXC3ru5u-1">
          <mxGeometry x="610" y="220" width="250" height="120" as="geometry" />
        </mxCell>
        <mxCell id="nEVGBtsOZPTAMh6AxARu-6" value="&lt;div&gt;&lt;/div&gt;" style="rounded=0;whiteSpace=wrap;html=1;dashed=1;" vertex="1" parent="lldb4Gp3CRzsJXC3ru5u-1">
          <mxGeometry x="640" y="236.75" width="80" height="86.5" as="geometry" />
        </mxCell>
        <mxCell id="nEVGBtsOZPTAMh6AxARu-7" value="Remote Server" style="image;points=[];aspect=fixed;html=1;align=center;shadow=0;dashed=0;image=img/lib/allied_telesis/computer_and_terminals/Server_Desktop.svg;" vertex="1" parent="lldb4Gp3CRzsJXC3ru5u-1">
          <mxGeometry x="550" y="233.25" width="73.76" height="93.5" as="geometry" />
        </mxCell>
        <mxCell id="nEVGBtsOZPTAMh6AxARu-8" style="edgeStyle=orthogonalEdgeStyle;rounded=0;orthogonalLoop=1;jettySize=auto;html=1;" edge="1" parent="lldb4Gp3CRzsJXC3ru5u-1" source="nEVGBtsOZPTAMh6AxARu-9">
          <mxGeometry relative="1" as="geometry">
            <mxPoint x="762.0344827586207" y="278.1465517241379" as="targetPoint" />
          </mxGeometry>
        </mxCell>
        <mxCell id="nEVGBtsOZPTAMh6AxARu-9" value="" style="image;sketch=0;aspect=fixed;html=1;points=[];align=center;fontSize=12;image=img/lib/mscae/Docker.svg;" vertex="1" parent="lldb4Gp3CRzsJXC3ru5u-1">
          <mxGeometry x="643.11" y="248.13" width="73.78" height="60.5" as="geometry" />
        </mxCell>
        <mxCell id="nEVGBtsOZPTAMh6AxARu-10" value="Container" style="rounded=0;whiteSpace=wrap;html=1;dashed=1;" vertex="1" parent="lldb4Gp3CRzsJXC3ru5u-1">
          <mxGeometry x="760" y="296.75" width="70" height="26.5" as="geometry" />
        </mxCell>
        <mxCell id="nEVGBtsOZPTAMh6AxARu-11" value="App&lt;div&gt;應用程式&lt;/div&gt;" style="rounded=0;whiteSpace=wrap;html=1;dashed=1;" vertex="1" parent="lldb4Gp3CRzsJXC3ru5u-1">
          <mxGeometry x="760" y="236.75" width="70" height="60" as="geometry" />
        </mxCell>
        <mxCell id="nEVGBtsOZPTAMh6AxARu-12" value="CICD Server" style="image;points=[];aspect=fixed;html=1;align=center;shadow=0;dashed=0;image=img/lib/allied_telesis/computer_and_terminals/Server_Desktop.svg;" vertex="1" parent="lldb4Gp3CRzsJXC3ru5u-1">
          <mxGeometry x="201.24" y="240" width="73.76" height="93.5" as="geometry" />
        </mxCell>
        <mxCell id="nEVGBtsOZPTAMh6AxARu-13" value="Image" style="whiteSpace=wrap;html=1;shape=mxgraph.basic.document" vertex="1" parent="lldb4Gp3CRzsJXC3ru5u-1">
          <mxGeometry x="305" y="382" width="40" height="63.5" as="geometry" />
        </mxCell>
        <mxCell id="nEVGBtsOZPTAMh6AxARu-14" style="edgeStyle=orthogonalEdgeStyle;rounded=0;orthogonalLoop=1;jettySize=auto;html=1;entryX=0;entryY=0.535;entryDx=0;entryDy=0;entryPerimeter=0;" edge="1" parent="lldb4Gp3CRzsJXC3ru5u-1" source="nEVGBtsOZPTAMh6AxARu-13" target="nEVGBtsOZPTAMh6AxARu-7">
          <mxGeometry relative="1" as="geometry" />
        </mxCell>
        <mxCell id="nEVGBtsOZPTAMh6AxARu-15" value="Deploy 遠端主機" style="edgeLabel;html=1;align=center;verticalAlign=middle;resizable=0;points=[];" vertex="1" connectable="0" parent="nEVGBtsOZPTAMh6AxARu-14">
          <mxGeometry x="0.0003" relative="1" as="geometry">
            <mxPoint as="offset" />
          </mxGeometry>
        </mxCell>
        <mxCell id="nEVGBtsOZPTAMh6AxARu-19" value="" style="swimlane;startSize=0;strokeWidth=7;fillColor=#dae8fc;strokeColor=#CC0000;dashed=1;" vertex="1" parent="lldb4Gp3CRzsJXC3ru5u-1">
          <mxGeometry x="180" y="200" width="230" height="280" as="geometry" />
        </mxCell>
      </root>
    </mxGraphModel>
  </diagram>
  <diagram name="檢查使用的Runtime" id="BQIIO7aI4EustTDeWfjX">
    <mxGraphModel dx="1315" dy="844" grid="1" gridSize="10" guides="1" tooltips="1" connect="1" arrows="1" fold="1" page="1" pageScale="1" pageWidth="1169" pageHeight="827" math="0" shadow="0">
      <root>
        <mxCell id="9yCowEcjL1yYhiwPV2Tr-0" />
        <mxCell id="9yCowEcjL1yYhiwPV2Tr-1" parent="9yCowEcjL1yYhiwPV2Tr-0" />
        <mxCell id="9yCowEcjL1yYhiwPV2Tr-2" style="edgeStyle=orthogonalEdgeStyle;rounded=0;orthogonalLoop=1;jettySize=auto;html=1;" edge="1" parent="9yCowEcjL1yYhiwPV2Tr-1" source="9yCowEcjL1yYhiwPV2Tr-4">
          <mxGeometry relative="1" as="geometry">
            <mxPoint x="325" y="379.9999999999999" as="targetPoint" />
          </mxGeometry>
        </mxCell>
        <mxCell id="9yCowEcjL1yYhiwPV2Tr-3" value="生成 Image" style="edgeLabel;html=1;align=center;verticalAlign=middle;resizable=0;points=[];" vertex="1" connectable="0" parent="9yCowEcjL1yYhiwPV2Tr-2">
          <mxGeometry x="-0.0087" y="-2" relative="1" as="geometry">
            <mxPoint x="-2" y="-1" as="offset" />
          </mxGeometry>
        </mxCell>
        <mxCell id="9yCowEcjL1yYhiwPV2Tr-4" value="" style="rounded=0;whiteSpace=wrap;html=1;" vertex="1" parent="9yCowEcjL1yYhiwPV2Tr-1">
          <mxGeometry x="270" y="230.25" width="110" height="109.75" as="geometry" />
        </mxCell>
        <mxCell id="9yCowEcjL1yYhiwPV2Tr-5" value="&lt;div&gt;&lt;/div&gt;" style="rounded=0;whiteSpace=wrap;html=1;dashed=1;" vertex="1" parent="9yCowEcjL1yYhiwPV2Tr-1">
          <mxGeometry x="285" y="234" width="80" height="105" as="geometry" />
        </mxCell>
        <mxCell id="9yCowEcjL1yYhiwPV2Tr-6" value="Jenkins" style="shape=image;verticalLabelPosition=bottom;labelBackgroundColor=default;verticalAlign=top;aspect=fixed;imageAspect=0;image=https://s4.itho.me/sites/default/files/images/733%20%E5%B0%81%E9%9D%A25%20(P28-4%E5%A4%A7%E5%B7%A5%E5%85%B7-Jenkins)-400.png;" vertex="1" parent="9yCowEcjL1yYhiwPV2Tr-1">
          <mxGeometry x="295" y="234" width="60" height="84" as="geometry" />
        </mxCell>
        <mxCell id="9yCowEcjL1yYhiwPV2Tr-7" value="" style="rounded=0;whiteSpace=wrap;html=1;" vertex="1" parent="9yCowEcjL1yYhiwPV2Tr-1">
          <mxGeometry x="610" y="220" width="250" height="120" as="geometry" />
        </mxCell>
        <mxCell id="9yCowEcjL1yYhiwPV2Tr-8" value="&lt;div&gt;&lt;/div&gt;" style="rounded=0;whiteSpace=wrap;html=1;dashed=1;" vertex="1" parent="9yCowEcjL1yYhiwPV2Tr-1">
          <mxGeometry x="640" y="236.75" width="80" height="86.5" as="geometry" />
        </mxCell>
        <mxCell id="9yCowEcjL1yYhiwPV2Tr-9" value="Remote Server" style="image;points=[];aspect=fixed;html=1;align=center;shadow=0;dashed=0;image=img/lib/allied_telesis/computer_and_terminals/Server_Desktop.svg;" vertex="1" parent="9yCowEcjL1yYhiwPV2Tr-1">
          <mxGeometry x="550" y="233.25" width="73.76" height="93.5" as="geometry" />
        </mxCell>
        <mxCell id="9yCowEcjL1yYhiwPV2Tr-10" style="edgeStyle=orthogonalEdgeStyle;rounded=0;orthogonalLoop=1;jettySize=auto;html=1;" edge="1" parent="9yCowEcjL1yYhiwPV2Tr-1" source="9yCowEcjL1yYhiwPV2Tr-11">
          <mxGeometry relative="1" as="geometry">
            <mxPoint x="762.0344827586207" y="278.1465517241379" as="targetPoint" />
          </mxGeometry>
        </mxCell>
        <mxCell id="9yCowEcjL1yYhiwPV2Tr-11" value="" style="image;sketch=0;aspect=fixed;html=1;points=[];align=center;fontSize=12;image=img/lib/mscae/Docker.svg;" vertex="1" parent="9yCowEcjL1yYhiwPV2Tr-1">
          <mxGeometry x="643.11" y="248.13" width="73.78" height="60.5" as="geometry" />
        </mxCell>
        <mxCell id="9yCowEcjL1yYhiwPV2Tr-12" value="Container" style="rounded=0;whiteSpace=wrap;html=1;dashed=1;" vertex="1" parent="9yCowEcjL1yYhiwPV2Tr-1">
          <mxGeometry x="760" y="296.75" width="70" height="26.5" as="geometry" />
        </mxCell>
        <mxCell id="9yCowEcjL1yYhiwPV2Tr-13" value="App&lt;div&gt;應用程式&lt;/div&gt;" style="rounded=0;whiteSpace=wrap;html=1;dashed=1;" vertex="1" parent="9yCowEcjL1yYhiwPV2Tr-1">
          <mxGeometry x="760" y="236.75" width="70" height="60" as="geometry" />
        </mxCell>
        <mxCell id="9yCowEcjL1yYhiwPV2Tr-14" value="CICD Server" style="image;points=[];aspect=fixed;html=1;align=center;shadow=0;dashed=0;image=img/lib/allied_telesis/computer_and_terminals/Server_Desktop.svg;" vertex="1" parent="9yCowEcjL1yYhiwPV2Tr-1">
          <mxGeometry x="201.24" y="240" width="73.76" height="93.5" as="geometry" />
        </mxCell>
        <mxCell id="9yCowEcjL1yYhiwPV2Tr-15" value="Image" style="whiteSpace=wrap;html=1;shape=mxgraph.basic.document" vertex="1" parent="9yCowEcjL1yYhiwPV2Tr-1">
          <mxGeometry x="305" y="382" width="40" height="63.5" as="geometry" />
        </mxCell>
        <mxCell id="9yCowEcjL1yYhiwPV2Tr-16" style="edgeStyle=orthogonalEdgeStyle;rounded=0;orthogonalLoop=1;jettySize=auto;html=1;entryX=0;entryY=0.535;entryDx=0;entryDy=0;entryPerimeter=0;" edge="1" parent="9yCowEcjL1yYhiwPV2Tr-1" source="9yCowEcjL1yYhiwPV2Tr-15" target="9yCowEcjL1yYhiwPV2Tr-9">
          <mxGeometry relative="1" as="geometry" />
        </mxCell>
        <mxCell id="9yCowEcjL1yYhiwPV2Tr-17" value="Deploy 遠端主機" style="edgeLabel;html=1;align=center;verticalAlign=middle;resizable=0;points=[];" vertex="1" connectable="0" parent="9yCowEcjL1yYhiwPV2Tr-16">
          <mxGeometry x="0.0003" relative="1" as="geometry">
            <mxPoint as="offset" />
          </mxGeometry>
        </mxCell>
        <mxCell id="9yCowEcjL1yYhiwPV2Tr-19" value="" style="swimlane;startSize=0;strokeWidth=7;fillColor=#dae8fc;strokeColor=#CC0000;dashed=1;" vertex="1" parent="9yCowEcjL1yYhiwPV2Tr-1">
          <mxGeometry x="740" y="196.75" width="140" height="163.25" as="geometry" />
        </mxCell>
      </root>
    </mxGraphModel>
  </diagram>
</mxfile>
